<svg xmlns="http://www.w3.org/2000/svg" width="176.125" height="82" viewBox="0 0 176.125 82">
  <defs>
    <style>
            .cls-1{fill:#0060a3}.cls-2{fill:#78c0eb}
    </style>
  </defs>
  <g id="fulbright-finland-foundation-logo-color-RGB" transform="translate(-54.87 -55.26)">
    <path id="Path_37" d="M58.076 291.376h2.911c.519-.018.629.092.611.611v1.5c.018.519-.092.629-.611.611h-2.911v4.243c.02.519-.092.629-.611.611h-1.982c-.519.018-.631-.092-.611-.611v-11.134c-.02-.519.092-.631.611-.613h5.837c.537-.018.647.095.629.613v1.506c.018.519-.092.631-.629.613h-3.244z" class="cls-1" data-name="Path 37" transform="translate(0 -180.238)"/>
    <path id="Path_38" d="M97.964 293.283c0 1.409.036 1.686.352 2.2a2.029 2.029 0 0 0 1.8.945 2.1 2.1 0 0 0 1.871-1 3.748 3.748 0 0 0 .334-2.151v-6.076c-.018-.519.092-.631.613-.613h1.982c.519-.018.629.095.611.613v6.522a5 5 0 0 1-1.2 3.8 6.128 6.128 0 0 1-8.671-.11 5.621 5.621 0 0 1-.9-3.686v-6.522c-.018-.519.092-.631.613-.613h1.982c.519-.018.629.095.611.613z" class="cls-1" data-name="Path 38" transform="translate(-30.89 -180.242)"/>
    <path id="Path_39" d="M160.422 296.23c.521-.018.631.092.613.611v1.5c.018.519-.092.629-.613.611h-5.835c-.519.018-.631-.092-.613-.611v-11.134c-.018-.519.095-.631.613-.613h1.982c.519-.018.629.095.611.613v9.018z" class="cls-1" data-name="Path 39" transform="translate(-76.759 -180.238)"/>
    <path id="Path_40" d="M197.365 286.594c2.255 0 3.483 1.15 3.483 3.224a2.568 2.568 0 0 1-1.353 2.539 2.991 2.991 0 0 1 1.722.78 3.365 3.365 0 0 1 .8 2.315c0 2.167-1.63 3.5-4.261 3.5h-4.541c-.519.018-.629-.092-.611-.611v-11.134c-.018-.519.092-.631.611-.613zm-.963 4.874c.981 0 1.5-.426 1.5-1.2s-.519-1.206-1.5-1.206h-.593v2.41zm.11 4.985c1.594 0 2.255-.39 2.255-1.3a1.19 1.19 0 0 0-.613-1.073 3.367 3.367 0 0 0-1.7-.225h-.654v2.595z" class="cls-1" data-name="Path 40" transform="translate(-107.247 -180.238)"/>
    <path id="Path_41" d="M253.075 298.157c.205.259.241.334.241.451 0 .259-.167.352-.629.352h-2.557c-.451 0-.451 0-.676-.37l-2.818-4.374v4.132c.02.519-.092.629-.611.611h-1.982c-.519.018-.631-.092-.611-.611v-11.141c-.02-.519.092-.631.611-.613h4.362a3.844 3.844 0 0 1 3.039 1.093 4.006 4.006 0 0 1 1.057 2.723 3.675 3.675 0 0 1-1.127 2.744 3.4 3.4 0 0 1-1.578.742zm-5.862-6.022a2.3 2.3 0 0 0 1.371-.334 1.578 1.578 0 0 0 .613-1.2 1.6 1.6 0 0 0-.613-1.206 2.441 2.441 0 0 0-1.371-.334h-.593v3.077z" class="cls-1" data-name="Path 41" transform="translate(-146.828 -180.238)"/>
    <path id="Path_42" d="M298.287 298.342c.02.519-.092.629-.611.611h-1.982c-.519.018-.629-.092-.611-.611v-11.135c-.018-.519.092-.631.611-.613h1.982c.519-.018.631.095.611.613z" class="cls-1" data-name="Path 42" transform="translate(-187.01 -180.238)"/>
    <path id="Path_43" d="M325.432 293.281c-.518.018-.631-.092-.613-.611v-1.278c-.018-.521.095-.631.613-.613h5.113c.555 0 .649.074.649.575a8.641 8.641 0 0 1-.649 3.224 5.861 5.861 0 0 1-5.688 3.5 6.258 6.258 0 0 1-6.6-6.538 6.341 6.341 0 0 1 6.689-6.651 5.7 5.7 0 0 1 4.854 2.279 2.387 2.387 0 0 1 .575 1.019c0 .2-.093.277-.451.426l-1.892.778c-.277.111-.313.129-.388.129a.392.392 0 0 1-.334-.225 2.664 2.664 0 0 0-2.5-1.63c-1.833 0-3.2 1.648-3.2 3.871a4.435 4.435 0 0 0 1.111 3 2.931 2.931 0 0 0 2.187.888 2.574 2.574 0 0 0 2.092-.9 2.48 2.48 0 0 0 .451-1.24z" class="cls-1" data-name="Path 43" transform="translate(-205.116 -178.924)"/>
    <path id="Path_44" d="M393.007 291.376v-4.169c-.018-.519.092-.631.611-.613h1.982c.518-.018.629.095.611.613v11.135c.018.519-.092.629-.611.611h-1.984c-.519.018-.629-.092-.611-.611v-4.466h-4.651v4.466c.02.519-.092.629-.611.611h-1.982c-.519.018-.631-.092-.611-.611v-11.135c-.02-.519.092-.631.611-.613h1.982c.518-.018.631.095.611.613v4.169z" class="cls-1" data-name="Path 44" transform="translate(-257.191 -180.238)"/>
    <path id="Path_45" d="M446.515 298.357c.018.519-.095.629-.613.611h-1.984c-.519.018-.629-.092-.611-.611v-9.017h-2c-.519.018-.629-.095-.611-.613v-1.5c-.018-.519.092-.631.611-.613h7.264c.519-.018.629.095.611.613v1.5c.018.518-.092.631-.611.613h-2.056z" class="cls-1" data-name="Path 45" transform="translate(-300.418 -180.253)"/>
    <path id="Path_46" d="M508.34 291.376h2.908c.519-.018.629.092.611.611v1.5c.018.519-.092.629-.611.611h-2.908v4.243c.018.519-.092.629-.613.611h-1.982c-.519.018-.629-.092-.611-.611v-11.134c-.018-.519.092-.631.611-.613h5.837c.537-.018.649.095.629.613v1.506c.02.519-.092.631-.629.613h-3.242z" class="cls-1" data-name="Path 46" transform="translate(-350.579 -180.238)"/>
    <path id="Path_47" d="M548.2 298.342c.02.519-.093.629-.611.611H545.6c-.519.018-.631-.092-.611-.611v-11.135c-.02-.519.092-.631.611-.613h1.982c.518-.018.631.095.611.613z" class="cls-1" data-name="Path 47" transform="translate(-381.569 -180.238)"/>
    <path id="Path_48" d="M579.8 287.207c-.018-.519.092-.631.611-.613h1.984c.518-.018.629.095.611.613v11.135c.018.519-.092.629-.611.611h-2.178c-.316 0-.334 0-.408-.036s-.092-.056-.277-.3l-5.652-7.226v6.948c.02.519-.092.629-.611.611h-1.982c-.519.018-.631-.092-.611-.611v-11.132c-.02-.519.092-.631.611-.613h2.167c.316 0 .334 0 .408.038s.092.056.28.3l5.65 7.228z" class="cls-1" data-name="Path 48" transform="translate(-401.673 -180.238)"/>
    <path id="Path_49" d="M643.312 296.23c.519-.018.631.092.611.611v1.5c.02.519-.092.629-.611.611h-5.837c-.518.018-.629-.092-.611-.611v-11.134c-.018-.519.092-.631.611-.613h1.984c.519-.018.629.095.611.613v9.018z" class="cls-1" data-name="Path 49" transform="translate(-453.145 -180.238)"/>
    <path id="Path_50" d="M676.856 296.8l-.676 1.686c-.167.451-.2.48-.676.462h-2.112c-.451 0-.611-.092-.611-.352 0-.092 0-.11.113-.39l4.284-11.153.056-.149c.128-.3.2-.334.629-.316h2.5c.48-.018.519.02.676.464l4.189 11.153a1.017 1.017 0 0 1 .11.408c0 .241-.147.334-.611.334h-2.147c-.465.018-.519-.018-.676-.482l-.631-1.666zm2.244-6.4l-1.353 3.948h2.667z" class="cls-1" data-name="Path 50" transform="translate(-481.194 -180.231)"/>
    <path id="Path_51" d="M744.774 287.207c-.018-.519.095-.631.613-.613h1.982c.519-.018.629.095.611.613v11.135c.018.519-.092.629-.611.611h-2.162c-.316 0-.334 0-.408-.036s-.092-.056-.28-.3l-5.65-7.226v6.948c.018.519-.092.629-.611.611h-1.984c-.519.018-.629-.092-.611-.611v-11.132c-.018-.519.092-.631.611-.613h2.169c.313 0 .334 0 .408.038s.092.056.277.3l5.65 7.228z" class="cls-1" data-name="Path 51" transform="translate(-530.408 -180.238)"/>
    <path id="Path_52" d="M801.8 287.207c-.02-.519.092-.631.611-.613h4.13a6.18 6.18 0 0 1 0 12.359h-4.13c-.519.018-.631-.092-.611-.611zm3.945 9.018a3.2 3.2 0 0 0 2.631-1.037 3.729 3.729 0 0 0 0-4.836 3.193 3.193 0 0 0-2.631-1.037H805v6.91z" class="cls-1" data-name="Path 52" transform="translate(-581.635 -180.238)"/>
    <path id="Path_53" d="M241.528 383.655h2.333c.415-.013.5.074.489.491v1.2c.016.415-.074.505-.489.489h-2.333v3.4c.013.417-.074.5-.492.489h-1.589c-.417.016-.505-.072-.491-.489v-8.93c-.014-.415.074-.505.491-.489h4.68c.433-.016.521.074.505.489v1.2c.016.417-.072.5-.505.491h-2.6z" class="cls-1" data-name="Path 53" transform="translate(-143.324 -252.834)"/>
    <path id="Path_54" d="M278.291 380.13a5.307 5.307 0 0 1-.431 7.654 5.521 5.521 0 0 1-3.67 1.249 5.266 5.266 0 0 1-5.44-5.381 5.21 5.21 0 0 1 1.86-3.945 5.6 5.6 0 0 1 3.627-1.249 5.371 5.371 0 0 1 4.054 1.672zm-6.849 3.657a2.789 2.789 0 1 0 .805-2 2.793 2.793 0 0 0-.805 1.999z" class="cls-1" data-name="Path 54" transform="translate(-166.549 -251.775)"/>
    <path id="Path_55" d="M327.278 385.185c0 1.127.029 1.353.282 1.77a1.628 1.628 0 0 0 1.441.757 1.682 1.682 0 0 0 1.5-.8 2.975 2.975 0 0 0 .268-1.725v-4.872c-.016-.415.074-.505.489-.489h1.592c.415-.016.505.074.489.489v5.23a4.013 4.013 0 0 1-.965 3.046 4.913 4.913 0 0 1-6.955-.09 4.5 4.5 0 0 1-.715-2.956v-5.23c-.014-.415.074-.505.491-.489h1.589c.417-.016.5.074.491.489z" class="cls-1" data-name="Path 55" transform="translate(-210.106 -252.834)"/>
    <path id="Path_56" d="M379.57 380.313c-.016-.415.074-.505.489-.489h1.589c.417-.016.507.074.491.489v8.932c.016.417-.074.505-.491.489h-1.738c-.253 0-.266 0-.327-.029s-.074-.043-.225-.225l-4.532-5.8v5.573c.014.417-.074.5-.491.489h-1.578c-.417.016-.505-.072-.491-.489v-8.944c-.014-.415.074-.505.491-.489h1.743c.253 0 .268 0 .327.029s.074.045.225.237l4.534 5.8z" class="cls-1" data-name="Path 56" transform="translate(-247.148 -252.834)"/>
    <path id="Path_57" d="M425.286 380.313c-.014-.415.074-.505.492-.489h3.314a4.955 4.955 0 0 1 0 9.908h-3.314c-.417.016-.505-.072-.492-.489zm3.156 7.239a2.561 2.561 0 0 0 2.11-.834 2.987 2.987 0 0 0 0-3.878 2.559 2.559 0 0 0-2.11-.832h-.584v5.542z" class="cls-1" data-name="Path 57" transform="translate(-288.423 -252.834)"/>
    <path id="Path_58" d="M468.969 388l-.537 1.353c-.133.356-.162.385-.548.37h-1.7c-.372 0-.489-.072-.489-.282 0-.074 0-.088.088-.311l3.434-8.946.045-.119c.1-.239.162-.268.5-.253h2.007c.386-.016.415.013.534.372l3.382 8.946a.816.816 0 0 1 .09.327c0 .194-.12.266-.491.266h-1.714c-.372.016-.417-.014-.537-.386l-.5-1.337zm1.8-5.127l-1.084 3.156h2.14z" class="cls-1" data-name="Path 58" transform="translate(-319.906 -252.82)"/>
    <path id="Path_59" d="M514.252 389.243c.016.417-.074.5-.491.489h-1.589c-.415.016-.5-.072-.489-.489v-7.237h-1.605c-.417.013-.505-.074-.491-.492v-1.2c-.014-.415.074-.505.491-.489h5.822c.415-.016.505.074.489.489v1.2c.016.417-.074.5-.489.491h-1.65z" class="cls-1" data-name="Path 59" transform="translate(-354.043 -252.834)"/>
    <path id="Path_60" d="M547.523 389.243c.016.417-.074.5-.489.489h-1.578c-.417.016-.507-.072-.492-.489v-8.93c-.016-.415.074-.505.492-.489h1.578c.415-.016.505.074.489.489z" class="cls-1" data-name="Path 60" transform="translate(-381.54 -252.834)"/>
    <path id="Path_61" d="M573.051 380.129a5.309 5.309 0 0 1-.433 7.654 5.521 5.521 0 0 1-3.67 1.249 5.264 5.264 0 0 1-5.438-5.381 5.2 5.2 0 0 1 1.858-3.945 5.584 5.584 0 0 1 3.625-1.249 5.377 5.377 0 0 1 4.058 1.672zm-6.851 3.657a2.789 2.789 0 1 0 .805-2 2.793 2.793 0 0 0-.805 2z" class="cls-1" data-name="Path 61" transform="translate(-396.08 -251.775)"/>
    <path id="Path_62" d="M626.723 380.313c-.016-.415.074-.505.489-.489h1.578c.417-.016.507.074.491.489v8.932c.016.417-.074.505-.491.489h-1.738c-.252 0-.266 0-.327-.029s-.074-.043-.225-.225l-4.532-5.8v5.573c.014.417-.074.5-.491.489h-1.589c-.417.016-.505-.072-.492-.489v-8.944c-.014-.415.074-.505.492-.489h1.738c.253 0 .268 0 .327.029s.074.045.225.237l4.534 5.8z" class="cls-1" data-name="Path 62" transform="translate(-439.583 -252.834)"/>
    <path id="Path_63" d="M281.923 84.541c-.814-.065-1.635-.1-2.464-.1a30.7 30.7 0 0 0-9.651 1.547.118.118 0 0 0-.023.014 37.472 37.472 0 0 0-12.485 18.345 19.86 19.86 0 0 0-16.649-9.018h-2.085a.345.345 0 0 0-.345.345v4.171a.345.345 0 0 0 .345.343h2.085a15.031 15.031 0 0 1 15.031 15.033v2.085a.343.343 0 0 0 .1.243.349.349 0 0 0 .243.1h4.175a.345.345 0 0 0 .345-.343v-2.088a32.543 32.543 0 0 1 21.4-30.537.07.07 0 0 0-.016-.14z" class="cls-2" data-name="Path 63" transform="translate(-142.96 -22.601)"/>
    <path id="Path_64" d="M476.638 55.26c-.437 0-.87 0-1.3.023a.068.068 0 0 0-.018.133 39.065 39.065 0 0 1 12.1 6.538 32.663 32.663 0 0 1 16.079 12.4.066.066 0 0 0 .093.018 21.827 21.827 0 0 1 4.238-2.135.068.068 0 0 0 .034-.1 37.343 37.343 0 0 0-31.226-16.877z" class="cls-2" data-name="Path 64" transform="translate(-327.623)"/>
    <path id="Path_65" d="M617.711 166.577a.074.074 0 0 0-.023.079 32.3 32.3 0 0 1 1.752 10.508v2.085a.343.343 0 0 0 .343.343h4.171a.343.343 0 0 0 .345-.343v-2.085a37.137 37.137 0 0 0-2.232-12.7.07.07 0 0 0-.086-.043 13.222 13.222 0 0 0-4.27 2.156z" class="cls-2" data-name="Path 65" transform="translate(-438.207 -85.068)"/>
    <path id="Path_66" d="M255.1 177.029v2.085a.345.345 0 0 0 .345.343h4.171a.345.345 0 0 0 .345-.343v-2.085a32.377 32.377 0 0 1 1.779-10.6.065.065 0 0 0-.023-.079 13.2 13.2 0 0 0-4.284-2.1.068.068 0 0 0-.083.043 37.143 37.143 0 0 0-2.25 12.736z" class="cls-1" data-name="Path 66" transform="translate(-155.899 -84.936)"/>
    <path id="Path_67" d="M368.083 72.729H366a19.855 19.855 0 0 0-16.71 9.144c-4.752-15.27-18.974-26.6-35.664-26.6A37.348 37.348 0 0 0 282.435 72.1a.07.07 0 0 0 .034.1 21.67 21.67 0 0 1 4.252 2.112.068.068 0 0 0 .092-.018 32.476 32.476 0 0 1 59.3 18.642v1.772a.338.338 0 0 0 .343.343h4.171a.343.343 0 0 0 .345-.343V92.62A15.031 15.031 0 0 1 366 77.587h2.083a.343.343 0 0 0 .345-.343v-4.17a.343.343 0 0 0-.345-.345z" class="cls-1" data-name="Path 67" transform="translate(-177.959 -.008)"/>
  </g>
</svg>
